<svg width="20" height="20" viewBox="0 0 20 20" fill="none" xmlns="http://www.w3.org/2000/svg">
<path d="M17.2393 2.23975C17.2526 2.23976 17.2645 2.24135 17.2676 2.2417H17.2783C17.299 2.24392 17.3188 2.24908 17.3301 2.25146L17.3418 2.25342L17.3457 2.25537L17.3535 2.25732C17.3694 2.26116 17.3839 2.26815 17.3965 2.27295H17.4072L17.4365 2.28662L17.5059 2.32764L17.5068 2.32861C17.5129 2.33297 17.519 2.33737 17.5215 2.33936L17.5303 2.34619L17.5381 2.354C17.5406 2.35636 17.5442 2.35868 17.5488 2.36279C17.553 2.36661 17.5592 2.37247 17.5654 2.37842C17.5654 2.37842 17.5669 2.38 17.5684 2.38135C17.5697 2.38255 17.5721 2.38418 17.5742 2.38623C17.5785 2.3903 17.5871 2.39878 17.5957 2.40967C17.6031 2.41827 17.6101 2.42803 17.6172 2.43799C17.6193 2.44066 17.6229 2.44443 17.626 2.44873C17.6299 2.45409 17.6333 2.46091 17.6377 2.46826H17.6387L17.6768 2.54639L17.6777 2.55029L19.4541 7.69092H19.4512C19.4524 7.69423 19.4542 7.6977 19.4551 7.70068L19.4561 7.70557C19.4583 7.71334 19.4621 7.71873 19.4629 7.72217V7.729C19.4629 7.729 19.4624 7.72386 19.4609 7.71826H19.459C19.4621 7.72789 19.4646 7.73867 19.4668 7.74951H19.4688C19.4696 7.75322 19.4699 7.75753 19.4707 7.76123C19.4713 7.76445 19.4723 7.76765 19.4727 7.771H19.4707C19.4737 7.78792 19.4784 7.80457 19.4785 7.81982L19.5059 7.99756H19.4727V8.73096C19.4725 9.76537 18.7046 10.6184 17.6973 10.8267V17.6411H18.998C19.2207 17.6412 19.4174 17.7938 19.4629 18.0063L19.4727 18.1011C19.4724 18.3615 19.2524 18.5599 18.998 18.5601H1.2334C1.01095 18.5598 0.815035 18.4074 0.769531 18.1948L0.759766 18.1011C0.759811 17.8406 0.979153 17.6414 1.2334 17.6411H2.53516V10.8267C1.52768 10.6185 0.759911 9.76547 0.759766 8.73096V7.81006L0.761719 7.80029C0.762247 7.79626 0.763015 7.79102 0.763672 7.78564C0.764285 7.78066 0.764885 7.77463 0.765625 7.76904L0.766602 7.76123L0.780273 7.70654V7.70557L0.782227 7.69873L0.78418 7.69092L2.56055 2.55029L2.5625 2.54639L2.59668 2.47314L2.60254 2.46338L2.61133 2.45166C2.61369 2.44816 2.61615 2.44302 2.62012 2.43799C2.62485 2.43128 2.62944 2.42555 2.63281 2.42139C2.6435 2.40816 2.6375 2.41515 2.64258 2.40869C2.64876 2.40085 2.65909 2.38962 2.67188 2.37744C2.67444 2.37501 2.69459 2.35329 2.7168 2.3374C2.7198 2.33526 2.72251 2.33293 2.72461 2.33154H2.72754L2.72852 2.32959C2.7485 2.31437 2.77566 2.29632 2.80664 2.28271L2.83691 2.26904H2.84473C2.85583 2.26496 2.86645 2.26046 2.87695 2.25732L2.88574 2.25439C2.89122 2.2531 2.89635 2.25298 2.89941 2.25244H2.90332L2.91016 2.25049C2.91616 2.24934 2.93077 2.2479 2.94727 2.24561L2.94824 2.24463C2.95273 2.24402 2.95825 2.24214 2.96289 2.2417V2.24365C2.97806 2.24178 2.99094 2.23981 2.99805 2.23975H17.2393ZM11.8975 10.0503C11.5133 10.522 10.9301 10.8369 10.2705 10.8784L10.1211 10.8833C9.40079 10.8832 8.75848 10.5573 8.3457 10.0503C7.9615 10.5221 7.37744 10.837 6.71777 10.8784L6.56836 10.8833C5.84841 10.8831 5.20569 10.5579 4.79297 10.0513C4.47304 10.4433 4.01522 10.7253 3.49121 10.8335V17.644H11.4238V10.9009C11.4239 10.6404 11.6442 10.4412 11.8984 10.4409L11.9922 10.4507C12.2045 10.4924 12.373 10.6727 12.373 10.9009V17.644H16.752V10.8335C16.2277 10.7253 15.7692 10.4435 15.4492 10.0513C15.065 10.5226 14.4815 10.837 13.8223 10.8784L13.6738 10.8833C12.9535 10.8832 12.3102 10.5573 11.8975 10.0503ZM8.97852 10.3989H8.97949H8.97852ZM15.5918 8.29736C15.7516 8.3461 15.8804 8.4732 15.916 8.63916L15.9258 8.73389C15.9261 9.40495 16.5019 9.96338 17.2275 9.96338H17.2295C17.91 9.96338 18.4594 9.4724 18.5254 8.85791L18.5312 8.73389V8.29736H15.5918ZM15.5781 9.95654H15.5791L15.4502 9.78174L15.5781 9.95654ZM1.7168 8.73389C1.71709 9.40484 2.29207 9.9632 3.01758 9.96338C3.69802 9.96333 4.24752 9.47235 4.31348 8.85791L4.31934 8.73389C4.31934 8.52351 4.46343 8.35514 4.65234 8.29736H1.7168V8.73389ZM4.93555 8.29736C5.0952 8.34618 5.22322 8.47331 5.25879 8.63916L5.26855 8.73389C5.26885 9.40495 5.84464 9.96338 6.57031 9.96338C7.25072 9.96332 7.79925 9.47232 7.86523 8.85791L7.87207 8.73389C7.87207 8.52351 8.01618 8.35515 8.20508 8.29736H4.93555ZM8.4873 8.29736C8.64711 8.3461 8.77495 8.4732 8.81055 8.63916L8.82129 8.73389C8.82159 9.40495 9.39737 9.96338 10.123 9.96338C10.8033 9.96315 11.352 9.47223 11.418 8.85791L11.4238 8.73389C11.4238 8.52354 11.568 8.35518 11.7568 8.29736H8.4873ZM12.04 8.29736C12.1998 8.34614 12.3277 8.47325 12.3633 8.63916L12.373 8.73389C12.3733 9.4049 12.9492 9.9633 13.6748 9.96338C14.3553 9.96336 14.9048 9.47238 14.9707 8.85791L14.9766 8.73389C14.9766 8.5235 15.1207 8.35515 15.3096 8.29736H12.04ZM15.1426 8.67334H15.1436H15.1426ZM1.90039 7.37842H18.3438L16.8848 3.15479H3.35938L1.90039 7.37842Z" fill="#5A8D40"/>
</svg>
