<svg width="20" height="20" viewBox="0 0 20 20" fill="none" xmlns="http://www.w3.org/2000/svg">
<path d="M10.8998 5.3022V9.6673L14.5331 11.845C14.6669 11.9252 14.7633 12.0552 14.8011 12.2064C14.839 12.3577 14.8152 12.5177 14.7349 12.6514C14.6546 12.7851 14.5245 12.8814 14.3731 12.9193C14.2217 12.9571 14.0615 12.9332 13.9277 12.853L10.0094 10.5041C9.92232 10.4519 9.8503 10.378 9.80035 10.2896C9.75039 10.2013 9.72419 10.1015 9.72431 10.0001V5.3022C9.72431 5.14646 9.78623 4.99709 9.89645 4.88696C10.0067 4.77684 10.1562 4.71497 10.3121 4.71497C10.4679 4.71497 10.6174 4.77684 10.7277 4.88696C10.8379 4.99709 10.8998 5.14646 10.8998 5.3022ZM10.3121 0.80008C9.1018 0.796937 7.90295 1.03373 6.78493 1.49674C5.66691 1.95975 4.65195 2.63977 3.79881 3.49744C2.95833 4.34697 2.23148 5.16126 1.49581 6.02254V3.73624C1.49581 3.5805 1.43389 3.43114 1.32366 3.32101C1.21344 3.21088 1.06394 3.14901 0.908062 3.14901C0.752181 3.14901 0.602685 3.21088 0.49246 3.32101C0.382236 3.43114 0.320312 3.5805 0.320312 3.73624V7.65113C0.320312 7.80688 0.382236 7.95624 0.49246 8.06637C0.602685 8.1765 0.752181 8.23836 0.908062 8.23836H4.82639C4.98227 8.23836 5.13177 8.1765 5.24199 8.06637C5.35222 7.95624 5.41414 7.80688 5.41414 7.65113C5.41414 7.49539 5.35222 7.34602 5.24199 7.2359C5.13177 7.12577 4.98227 7.0639 4.82639 7.0639H2.15507C2.95147 6.11356 3.72828 5.23858 4.63048 4.32348C5.74688 3.20811 7.1675 2.44618 8.71484 2.13289C10.2622 1.8196 11.8676 1.96883 13.3305 2.56195C14.7935 3.15507 16.049 4.16577 16.9403 5.46776C17.8316 6.76975 18.3191 8.3053 18.342 9.88254C18.3648 11.4598 17.9219 13.0088 17.0686 14.3359C16.2154 15.6631 14.9896 16.7097 13.5444 17.3448C12.0992 17.9799 10.4988 18.1754 8.94303 17.9069C7.38727 17.6385 5.9452 16.9179 4.79701 15.8352C4.74129 15.7803 4.67518 15.7371 4.60254 15.7081C4.5299 15.6791 4.45219 15.6649 4.37398 15.6663C4.29576 15.6677 4.21861 15.6846 4.14705 15.7162C4.07548 15.7478 4.01095 15.7933 3.95722 15.8501C3.90349 15.9069 3.86165 15.9739 3.83416 16.047C3.80667 16.1202 3.79407 16.1981 3.79711 16.2762C3.80014 16.3543 3.81875 16.431 3.85185 16.5019C3.88494 16.5727 3.93185 16.6362 3.98983 16.6886C5.08266 17.7198 6.41153 18.468 7.86042 18.8679C9.30931 19.2678 10.8342 19.3072 12.3018 18.9827C13.7695 18.6582 15.1353 17.9797 16.28 17.0063C17.4247 16.033 18.3136 14.7945 18.8689 13.3989C19.4242 12.0033 19.6291 10.4931 19.4658 9.00014C19.3024 7.5072 18.7757 6.07693 17.9317 4.8342C17.0876 3.59148 15.9519 2.57409 14.6237 1.87089C13.2955 1.16769 11.8152 0.800051 10.3121 0.80008Z" fill="#5A8D40"/>
</svg>
